<?xml version="1.0" encoding="UTF-8"?>
<svg width="51px" height="44px" viewBox="0 0 51 44" version="1.1" xmlns="http://www.w3.org/2000/svg" xmlns:xlink="http://www.w3.org/1999/xlink">
    <!-- Generator: Sketch 49.2 (51160) - http://www.bohemiancoding.com/sketch -->
    <title>Combined Shape</title>
    <desc>Created with Sketch.</desc>
    <defs></defs>
    <g id="Page-1" stroke="none" stroke-width="1" fill="none" fill-rule="evenodd">
        <g id="Desktop-HD-Copy" transform="translate(-39.000000, -38.000000)" fill="#FFFFFF" fill-rule="nonzero">
            <path d="M44.155899,47.6188221 C44.151366,47.6296514 44.146706,47.6404584 44.1419183,47.6512413 C42.9018786,50.4440793 42.2526309,53.4742234 42.2519441,56.5979108 C42.2519435,67.2636681 49.8676705,76.35912 60.2514323,78.3579675 C61.1331143,78.527689 61.7097131,79.3771265 61.5393017,80.2552391 C61.3688903,81.1333518 60.516,81.7076163 59.634318,81.5378948 C47.7276642,79.2458945 38.9999993,68.8224569 39,56.5975561 C39.0007865,53.0204515 39.7455262,49.5446306 41.1677925,46.3413788 C41.1732861,46.329006 41.1789163,46.3167358 41.1846806,46.3045691 C41.1898789,46.2921521 41.1952443,46.2797648 41.2007777,46.2674096 C42.0073268,44.4665063 43.0225176,42.7664909 44.2233682,41.2006475 C44.7684496,40.4898913 45.7888491,40.3537965 46.5024944,40.8966712 C47.2161396,41.4395459 47.3527876,42.4558145 46.8077063,43.1665707 C45.7597314,44.5330724 44.8740662,46.0161872 44.1706749,47.5867546 C44.1658526,47.5975222 44.1609267,47.6082116 44.155899,47.6188221 Z M69.6655901,78.1617076 C69.6773702,78.1586227 69.6892137,78.1556598 69.7011193,78.1528207 C79.624422,75.7864111 86.7458697,66.9110811 86.7480559,56.6083666 C86.7480564,53.1446483 85.9529046,49.8018158 84.4444018,46.7723973 C84.0454222,45.9711552 84.3741607,44.9994927 85.1786596,44.6021284 C85.9831586,44.204764 86.9587706,44.5321716 87.3577502,45.3334137 C89.087782,48.807713 90.0000006,52.6426965 90,56.608709 C89.997494,68.4181206 81.8362961,78.5892724 70.4583583,81.3025688 C70.4446947,81.3058271 70.4310301,81.3089032 70.4173671,81.3117987 C70.4038572,81.3153357 70.3902643,81.3187121 70.37659,81.3219253 C68.4652469,81.771052 66.4970081,82 64.5,82 C63.6020004,82 62.8740279,81.2749746 62.8740279,80.3806104 C62.8740279,79.4862462 63.6020004,78.7612208 64.5,78.7612208 C66.2451126,78.7612208 67.962778,78.5614198 69.6298457,78.1696929 C69.6417608,78.1668931 69.6536761,78.1642317 69.6655901,78.1617076 Z M64.5,68.0969479 C63.6020004,68.0969479 62.8740279,67.3719225 62.8740279,66.4775583 C62.8740279,65.5831942 63.6020004,64.8581688 64.5,64.8581688 C69.0776075,64.8581688 72.7884916,61.1623075 72.7884916,56.6032316 C72.7884916,52.0441557 69.0776075,48.3482944 64.5,48.3482944 C59.9223924,48.3482944 56.2115083,52.0441557 56.2115083,56.6032316 C56.2115083,58.8920425 57.1492505,61.0278667 58.7796381,62.5770193 C59.4293762,63.1943837 59.4535859,64.2194409 58.8337119,64.8665487 C58.213838,65.5136564 57.1846142,65.537768 56.5348761,64.9204036 C54.2677398,62.7662287 52.9595642,59.7866965 52.9595642,56.6032316 C52.9595642,50.2554273 58.1263933,45.1095153 64.5,45.1095153 C70.8736066,45.1095153 76.0404357,50.2554273 76.0404357,56.6032316 C76.0404357,62.9510358 70.8736066,68.0969479 64.5,68.0969479 Z M64.5,75.2064632 C63.6020004,75.2064632 62.8740279,74.4814378 62.8740279,73.5870736 C62.8740279,72.6927094 63.6020004,71.967684 64.5,71.967684 C73.0200446,71.967684 79.9269055,65.0887844 79.9269055,56.6032316 C79.9269055,48.1176788 73.0200446,41.2387792 64.5,41.2387792 C63.6608409,41.2387792 62.8307801,41.3053573 62.0149224,41.4368355 C61.1284526,41.5796931 60.2935472,40.9797856 60.1501089,40.0969045 C60.0066706,39.2140234 60.6090167,38.3824979 61.4954864,38.2396404 C62.4829306,38.0805104 63.4866915,38 64.5,38 C74.8160437,38 83.1788496,46.3289505 83.1788496,56.6032316 C83.1788496,66.8775127 74.8160437,75.2064632 64.5,75.2064632 Z M84.1314518,40.3937343 C84.7049405,41.0819606 84.6096595,42.1029007 83.9186357,42.6740677 C83.2276118,43.2452348 82.2025219,43.1503394 81.6290332,42.4621131 C81.6132112,42.4431256 81.5973574,42.4241641 81.581472,42.4052289 C81.0056908,41.7189039 81.0975659,40.6976542 81.7866807,40.1242039 C82.4757955,39.5507537 83.5011963,39.6422568 84.0769775,40.3285819 C84.0951718,40.3502693 84.11333,40.3719868 84.1314518,40.3937343 Z M64.5396578,62.0143627 C61.5609276,62.0143627 59.1461896,59.6094003 59.1461896,56.6427289 C59.1461896,53.6760575 61.5609276,51.2710952 64.5396578,51.2710952 C67.5183881,51.2710952 69.9331261,53.6760575 69.9331261,56.6427289 C69.9331261,59.6094003 67.5183881,62.0143627 64.5396578,62.0143627 Z M64.5396578,58.7755835 C65.722389,58.7755835 66.681182,57.820672 66.681182,56.6427289 C66.681182,55.4647858 65.722389,54.5098743 64.5396578,54.5098743 C63.3569267,54.5098743 62.3981337,55.4647858 62.3981337,56.6427289 C62.3981337,57.820672 63.3569267,58.7755835 64.5396578,58.7755835 Z" id="Combined-Shape" transform="translate(64.500000, 60.000000) scale(-1, 1) rotate(-180.000000) translate(-64.500000, -60.000000) "></path>
        </g>
    </g>
</svg>