<?xml version="1.0" encoding="UTF-8"?>
<svg width="17px" height="18px" viewBox="0 0 17 18" version="1.1" xmlns="http://www.w3.org/2000/svg" xmlns:xlink="http://www.w3.org/1999/xlink">
    <!-- Generator: Sketch 49.2 (51160) - http://www.bohemiancoding.com/sketch -->
    <title>Spotify_logo_with_text</title>
    <desc>Created with Sketch.</desc>
    <defs></defs>
    <g id="Page-1" stroke="none" stroke-width="1" fill="none" fill-rule="evenodd">
        <g id="Spotify_logo_with_text" fill="#EA5E86" fill-rule="nonzero">
            <path d="M8.62645001,0.277 C4.00201943,0.277 0.253,4.02591944 0.253,8.65035002 C0.253,13.2749806 4.00201943,17.0236 8.62645001,17.0236 C13.2513805,17.0236 17,13.2749806 17,8.65035002 C17,4.02621941 13.2513805,0.277399959 8.62635002,0.277399959 L8.62645001,0.277 Z M12.4664602,12.3537741 C12.3164754,12.5997491 11.9945081,12.6777412 11.7485331,12.5267565 C9.78253265,11.3258784 7.30758388,11.053906 4.39287976,11.7198384 C4.11200827,11.7838319 3.83203669,11.6078498 3.76804319,11.3268783 C3.70374971,11.0459068 3.87903192,10.7659353 4.16060334,10.7019418 C7.35027955,9.97321573 10.0863018,10.2869839 12.2934778,11.635847 C12.5394528,11.7868316 12.6174449,12.107799 12.4664602,12.3537741 Z M13.4913562,10.0738055 C13.3023753,10.3809743 12.9004162,10.4779645 12.5934473,10.2889837 C10.3426758,8.90552411 6.91172407,8.50486478 4.24949431,9.31298275 C3.90422936,9.41727216 3.53956638,9.22269192 3.43477702,8.8780269 C3.33078757,8.53276195 3.52546781,8.1687989 3.87013282,8.06380956 C6.91112413,7.14110322 10.6916404,7.58805785 13.276378,9.17639662 C13.5833468,9.36537743 13.680337,9.76733663 13.4913562,10.0739055 L13.4913562,10.0738055 Z M13.5793472,7.69964652 C10.8806212,6.09670924 6.42807316,5.9493242 3.85143472,6.73134481 C3.43767672,6.85683208 3.00012114,6.62325579 2.87473387,6.20949779 C2.74934659,5.79553981 2.9827229,5.3582842 3.39678087,5.23249696 C6.35458062,4.33458811 11.2715815,4.5080705 14.3786661,6.35258326 C14.7516282,6.57346084 14.8736159,7.05411205 14.6526383,7.42577432 C14.4326606,7.79793654 13.9507095,7.92062409 13.5797472,7.69964652 L13.5793472,7.69964652 Z" id="Shape"></path>
        </g>
    </g>
</svg>