<?xml version="1.0" encoding="UTF-8"?>
<svg width="45px" height="51px" viewBox="0 0 45 51" version="1.1" xmlns="http://www.w3.org/2000/svg" xmlns:xlink="http://www.w3.org/1999/xlink">
    <!-- Generator: Sketch 52.2 (67145) - http://www.bohemiancoding.com/sketch -->
    <title>Group 5</title>
    <desc>Created with Sketch.</desc>
    <g id="landing-page" stroke="none" stroke-width="1" fill="none" fill-rule="evenodd">
        <g id="Desktop-HD" transform="translate(-58.000000, -47.000000)" fill="#03006E">
            <g id="Group-5" transform="translate(57.000000, 47.000000)">
                <path d="M20.301,35.398209 C20.301,39.3992637 14.301,39.3992637 14.301,35.398209 C14.301,31.400497 20.301,31.400497 20.301,35.398209" id="Fill-2"></path>
                <path d="M34.801,35.398209 C34.801,39.3992637 28.801,39.3992637 28.801,35.398209 C28.801,31.400497 34.801,31.400497 34.801,35.398209" id="Fill-3"></path>
                <path d="M44.7745793,29.3103521 C46.2581931,21.0119062 46.1021794,14.853313 44.3065383,10.8345724 C42.5108972,6.81583184 40.198075,5.72413604 37.3680716,7.55948499 C33.2604588,4.39027277 28.3057337,2.21260034 22.5038963,1.0264677 C16.7020588,-0.159664946 11.8304565,-0.159664946 7.88908936,1.0264677 L9,5.14645636 L1.5025661,3.52219914 C-0.494135996,13.7220434 3.29394602,20.162845 12.8668121,22.8446039 C22.4396783,25.5263629 30.3286492,24.7968699 36.533725,20.6561249" id="Path-2"></path>
                <path d="M21.199,50.699 C23.3982,50.39822 24.4998,49.4998 24.9998,48.3982 C25.4998,49.4998 26.6014,50.3982 28.8006,50.699 C32.6014,51.199 37.1014,48.9998 37.9022,48.699 C38.60142,48.30056 38.4022,47.5974 37.70298,47.4998 C33.40218,47.10136 30.70298,45.1014 28.80458,44.1014 C27.40618,43.40218 25.80458,43.70296 25.00378,44.70296 C24.203,43.70296 22.60538,43.40216 21.20298,44.1014 C19.30458,45.1014 16.60138,47.1014 12.30458,47.4998 C11.60536,47.60136 11.40614,48.30058 12.10536,48.699 C12.89833,49.10134 17.49986,51.199 21.19916,50.699 L21.199,50.699 Z" id="Fill-4"></path>
            </g>
        </g>
    </g>
</svg>