<?xml version="1.0" encoding="UTF-8"?>
<svg width="85px" height="85px" viewBox="0 0 85 85" version="1.1" xmlns="http://www.w3.org/2000/svg" xmlns:xlink="http://www.w3.org/1999/xlink">
    <!-- Generator: Sketch 52.6 (67491) - http://www.bohemiancoding.com/sketch -->
    <title>Group 2</title>
    <desc>Created with Sketch.</desc>
    <defs>
        <linearGradient x1="50%" y1="0%" x2="50%" y2="100%" id="linearGradient-1">
            <stop stop-color="#E700FD" offset="0%"></stop>
            <stop stop-color="#CB00FA" offset="100%"></stop>
        </linearGradient>
    </defs>
    <g id="landing-page-2019" stroke="none" stroke-width="1" fill="none" fill-rule="evenodd">
        <g id="Desktop-HD" transform="translate(-64.000000, -64.000000)">
            <g id="Group-13" transform="translate(64.000000, 64.000000)">
                <g id="Group-2">
                    <g id="Group">
                        <path d="M15.4972376,16.9060773 L15.4972376,9.62707182 L68.9292116,9.62707182 L68.9292116,16.9060773 L76.3121547,16.9060773 L76.3121547,68.7983425 L68.9292116,68.7983425 L68.9292116,78.4254144 L15.4972376,78.4254144 L15.4972376,68.7983425 L10.801105,68.7983425 L10.801105,16.9060773 L15.4972376,16.9060773 Z" id="Combined-Shape" fill-opacity="0.0982223732" fill="#D600FB"></path>
                        <path d="M67.3895028,10.801105 L17.6104972,10.801105 L17.6104972,13.6187845 C17.6104972,15.8233466 15.8233466,17.6104972 13.6187845,17.6104972 L10.801105,17.6104972 L10.801105,67.3895028 L13.6187845,67.3895028 C15.8233466,67.3895028 17.6104972,69.1766534 17.6104972,71.3812155 L17.6104972,76.3121547 L67.3895028,76.3121547 L67.3895028,71.3812155 C67.3895028,69.1766534 69.1766534,67.3895028 71.3812155,67.3895028 L76.3121547,67.3895028 L76.3121547,17.6104972 L71.3812155,17.6104972 C69.1766534,17.6104972 67.3895028,15.8233466 67.3895028,13.6187845 L67.3895028,10.801105 Z M78.4254144,17.6104972 L78.4254144,67.3895028 L81.0082873,67.3895028 C83.2128493,67.3895028 85,69.1766534 85,71.3812155 L85,81.0082873 C85,83.2128493 83.2128493,85 81.0082873,85 L71.3812155,85 C69.1766534,85 67.3895028,83.2128493 67.3895028,81.0082873 L67.3895028,78.4254144 L17.6104972,78.4254144 L17.6104972,81.0082873 C17.6104972,83.2128493 15.8233466,85 13.6187845,85 L3.99171271,85 C1.78715065,85 0,83.2128493 0,81.0082873 L0,71.3812155 C0,69.1766534 1.78715065,67.3895028 3.99171271,67.3895028 L8.6878453,67.3895028 L8.6878453,17.6104972 L3.99171271,17.6104972 C1.78715065,17.6104972 0,15.8233466 0,13.6187845 L0,3.99171271 C0,1.78715065 1.78715065,0 3.99171271,0 L13.6187845,0 C15.8233466,0 17.6104972,1.78715065 17.6104972,3.99171271 L17.6104972,8.6878453 L67.3895028,8.6878453 L67.3895028,3.99171271 C67.3895028,1.78715065 69.1766534,0 71.3812155,0 L81.0082873,0 C83.2128493,0 85,1.78715065 85,3.99171271 L85,13.6187845 C85,15.8233466 83.2128493,17.6104972 81.0082873,17.6104972 L78.4254144,17.6104972 Z M78.4254144,15.4972376 L81.0082873,15.4972376 C82.0457283,15.4972376 82.8867403,14.6562255 82.8867403,13.6187845 L82.8867403,3.99171271 C82.8867403,2.95427174 82.0457283,2.11325967 81.0082873,2.11325967 L71.3812155,2.11325967 C70.3437745,2.11325967 69.5027624,2.95427174 69.5027624,3.99171271 L69.5027624,8.6878453 L69.5027624,13.6187845 C69.5027624,14.6562255 70.3437745,15.4972376 71.3812155,15.4972376 L78.4254144,15.4972376 Z M78.4254144,69.5027624 L71.3812155,69.5027624 C70.3437745,69.5027624 69.5027624,70.3437745 69.5027624,71.3812155 L69.5027624,78.4254144 L69.5027624,81.0082873 C69.5027624,82.0457283 70.3437745,82.8867403 71.3812155,82.8867403 L81.0082873,82.8867403 C82.0457283,82.8867403 82.8867403,82.0457283 82.8867403,81.0082873 L82.8867403,71.3812155 C82.8867403,70.3437745 82.0457283,69.5027624 81.0082873,69.5027624 L78.4254144,69.5027624 Z M15.4972376,8.6878453 L15.4972376,3.99171271 C15.4972376,2.95427174 14.6562255,2.11325967 13.6187845,2.11325967 L3.99171271,2.11325967 C2.95427174,2.11325967 2.11325967,2.95427174 2.11325967,3.99171271 L2.11325967,13.6187845 C2.11325967,14.6562255 2.95427174,15.4972376 3.99171271,15.4972376 L8.6878453,15.4972376 L13.6187845,15.4972376 C14.6562255,15.4972376 15.4972376,14.6562255 15.4972376,13.6187845 L15.4972376,8.6878453 Z M15.4972376,78.4254144 L15.4972376,71.3812155 C15.4972376,70.3437745 14.6562255,69.5027624 13.6187845,69.5027624 L8.6878453,69.5027624 L3.99171271,69.5027624 C2.95427174,69.5027624 2.11325967,70.3437745 2.11325967,71.3812155 L2.11325967,81.0082873 C2.11325967,82.0457283 2.95427174,82.8867403 3.99171271,82.8867403 L13.6187845,82.8867403 C14.6562255,82.8867403 15.4972376,82.0457283 15.4972376,81.0082873 L15.4972376,78.4254144 Z M60.4041051,47.4358474 L60.4039309,47.4358474 C60.9704226,47.4402588 61.4271393,47.9063898 61.4293371,48.4741513 C61.4293371,48.4741513 61.4315294,48.5382174 61.4227492,48.6486761 C61.361254,49.8261632 60.8562518,55.6383231 56.8665435,56.8379234 C55.4787994,57.2554732 54.0867269,57.4675566 52.7275381,57.4675566 C49.2780202,57.4675566 46.1798228,56.1133334 44.2255813,53.7516857 C43.6920238,53.1044071 43.2792138,52.5255947 42.9608274,52.0108485 C42.6424467,52.5277665 42.2296423,53.1044071 41.6960735,53.7516857 C39.7438556,56.1133334 36.6458831,57.4675566 33.1963653,57.4675566 C31.8371764,57.4675566 30.445104,57.2554619 29.0573598,56.8379234 C25.0676515,55.6361174 24.5604458,49.8239575 24.4989619,48.6486761 C24.492374,48.5382174 24.492374,48.4763569 24.492374,48.4763569 C24.4989507,47.9064068 24.9578596,47.4402644 25.5243569,47.4358474 L25.5331371,47.4358474 C26.0952724,47.4358474 26.5563849,47.8799218 26.571753,48.4476832 L26.5761487,48.5272173 C26.631011,49.3202962 26.9845237,50.2592318 28.3437126,50.2592318 C28.8970508,50.2592318 29.9532046,48.9380936 30.7239176,47.9748956 C32.1994638,46.1280167 33.8704004,44.0381186 36.2132923,44.0381186 C39.0810796,44.0381186 41.8850109,45.1493451 42.9631433,45.6287441 C44.0412758,45.1493225 46.8453195,44.0381186 49.7129943,44.0381186 C52.0536322,44.0381186 53.7268173,46.1302224 55.2023635,47.9748956 C55.9752687,48.9381502 57.0314393,50.2592318 57.5825741,50.2592318 C58.9417292,50.2592318 59.2930498,49.3180905 59.3501379,48.5272173 L59.354528,48.4454776 C59.3699299,47.8776879 59.8463824,47.4336361 60.4041051,47.4358474 Z M34.8167286,34.9031319 C34.8167286,36.7765354 33.3082426,38.2964665 31.4440516,38.2964665 C29.5820528,38.2964665 28.0713745,36.7765354 28.0713745,34.9031319 C28.0713745,33.0297285 29.5820528,31.5097974 31.4440516,31.5097974 C33.3082426,31.5097974 34.8167286,33.0297285 34.8167286,34.9031319 Z M57.8656035,34.9053942 C57.8656035,36.7787976 56.3571175,38.2987287 54.4929265,38.2987287 C52.6309277,38.2987287 51.1202495,36.7787976 51.1202495,34.9053942 C51.1202495,33.0319907 52.6309277,31.5120596 54.4929265,31.5120596 C56.3571175,31.5120596 57.8656035,33.0319907 57.8656035,34.9053942 Z" id="Combined-Shape" fill="url(#linearGradient-1)" fill-rule="nonzero"></path>
                    </g>
                </g>
            </g>
        </g>
    </g>
</svg>