<?xml version="1.0" encoding="UTF-8"?>
<svg width="60px" height="59px" viewBox="0 0 60 59" version="1.1" xmlns="http://www.w3.org/2000/svg" xmlns:xlink="http://www.w3.org/1999/xlink">
    <!-- Generator: Sketch 52.2 (67145) - http://www.bohemiancoding.com/sketch -->
    <title>Group 3</title>
    <desc>Created with Sketch.</desc>
    <g id="landing-page" stroke="none" stroke-width="1" fill="none" fill-rule="evenodd">
        <g id="Desktop-HD-Copy-6" transform="translate(-49.000000, -45.000000)" fill="#FF00CC">
            <g id="Group-3" transform="translate(49.000000, 45.000000)">
                <rect id="Rectangle" stroke="#FF00CC" fill-opacity="0.201256793" x="2.5" y="2.5" width="55" height="55"></rect>
                <rect id="Rectangle-Copy-13" x="0" y="0" width="5" height="5"></rect>
                <rect id="Rectangle-Copy-11" x="0" y="54" width="5" height="5"></rect>
                <path d="M25.630948,24.998284 C25.630948,28.9993387 19.630948,28.9993387 19.630948,24.998284 C19.630948,21.000572 25.630948,21.000572 25.630948,24.998284" id="Fill-2"></path>
                <path d="M40.130948,24.998284 C40.130948,28.9993387 34.130948,28.9993387 34.130948,24.998284 C34.130948,21.000572 40.130948,21.000572 40.130948,24.998284" id="Fill-3"></path>
                <path d="M26.528948,40.299075 C28.728148,39.998295 29.829748,39.099875 30.329748,37.998275 C30.829748,39.099875 31.931348,39.998275 34.130548,40.299075 C37.931348,40.799075 42.431348,38.599875 43.232148,38.299075 C43.931368,37.900635 43.732148,37.197475 43.032928,37.099875 C38.732128,36.701435 36.032928,34.701475 34.134528,33.701475 C32.736128,33.002255 31.134528,33.303035 30.333728,34.303035 C29.532948,33.303035 27.935328,33.002235 26.532928,33.701475 C24.634528,34.701475 21.931328,36.701475 17.634528,37.099875 C16.935308,37.201435 16.736088,37.900655 17.435308,38.299075 C18.228278,38.701415 22.829808,40.799075 26.529108,40.299075 L26.528948,40.299075 Z" id="Fill-4"></path>
                <rect id="Rectangle-Copy-8" x="55" y="0" width="5" height="5"></rect>
                <rect id="Rectangle-Copy-9" x="55" y="54" width="5" height="5"></rect>
            </g>
        </g>
    </g>
</svg>