<?xml version="1.0" encoding="UTF-8"?>
<svg width="81px" height="81px" viewBox="0 0 81 81" version="1.1" xmlns="http://www.w3.org/2000/svg" xmlns:xlink="http://www.w3.org/1999/xlink">
    <!-- Generator: Sketch 52.2 (67145) - http://www.bohemiancoding.com/sketch -->
    <title>Group 5</title>
    <desc>Created with Sketch.</desc>
    <g id="landing-page" stroke="none" stroke-width="1" fill="none" fill-rule="evenodd">
        <g id="Desktop-HD" transform="translate(-40.000000, -33.000000)">
            <g id="Group-5" transform="translate(40.000000, 33.000000)">
                <circle id="Oval" fill="#FFFFFF" cx="40.5" cy="40.5" r="40.5"></circle>
                <path d="M37.301,49.398209 C37.301,53.3992637 31.301,53.3992637 31.301,49.398209 C31.301,45.400497 37.301,45.400497 37.301,49.398209 Z M51.801,49.398209 C51.801,53.3992637 45.801,53.3992637 45.801,49.398209 C45.801,45.400497 51.801,45.400497 51.801,49.398209 Z M61.7745793,43.3103521 L53.533725,34.6561249 C47.3286492,38.7968699 39.4396783,39.5263629 29.8668121,36.8446039 C20.293946,34.162845 16.505864,27.7220434 18.5025661,17.5221991 L26,19.1464564 L24.8890894,15.0264677 C28.8304565,13.8403351 33.7020588,13.8403351 39.5038963,15.0264677 C45.3057337,16.2126003 50.2604588,18.3902728 54.3680716,21.559485 C57.198075,19.724136 59.5108972,20.8158318 61.3065383,24.8345724 C63.1021794,28.853313 63.2581931,35.0119062 61.7745793,43.3103521 Z M38.199,64.699 L38.19916,64.699 C34.49986,65.199 29.89833,63.10134 29.10536,62.699 C28.40614,62.30058 28.60536,61.60136 29.30458,61.4998 C33.60138,61.1014 36.30458,59.1014 38.20298,58.1014 C39.60538,57.40216 41.203,57.70296 42.00378,58.70296 C42.80458,57.70296 44.40618,57.40218 45.80458,58.1014 C47.70298,59.1014 50.40218,61.10136 54.70298,61.4998 C55.4022,61.5974 55.60142,62.30056 54.9022,62.699 C54.1014,62.9998 49.6014,65.199 45.8006,64.699 C43.6014,64.3982 42.4998,63.4998 41.9998,62.3982 C41.4998,63.4998 40.3982,64.39822 38.199,64.699 Z" id="Combined-Shape" fill="#080F2A"></path>
            </g>
        </g>
    </g>
</svg>