<?xml version="1.0" encoding="UTF-8"?>
<svg width="39px" height="48px" viewBox="0 0 39 48" version="1.1" xmlns="http://www.w3.org/2000/svg" xmlns:xlink="http://www.w3.org/1999/xlink">
    <!-- Generator: Sketch 52.6 (67491) - http://www.bohemiancoding.com/sketch -->
    <title>Group 16</title>
    <desc>Created with Sketch.</desc>
    <g id="landing-page-2019" stroke="none" stroke-width="1" fill="none" fill-rule="evenodd">
        <g id="Desktop-HD" transform="translate(-182.000000, -3635.000000)">
            <g id="Group-15" transform="translate(44.000000, 3539.000000)">
                <g id="Group-5" transform="translate(138.000000, 96.000000)">
                    <g id="Group-16">
                        <path d="M13.25,35.0995 L13.24985,35.0998 C13.59945,35.0998 13.900245,35.00019 14.2479,34.8498 L18.7987,33.3498 L12.1992,47.349799 C12,47.750189 11.44922,47.800969 11.25,47.400579 L8.0508,41.59958 C7.94922,41.40036 7.75,41.2988 7.5,41.34958 L0.949,42.59958 C0.49979,42.69918 0.15018,42.24997 0.3494,41.84958 L6.9004,27.95108 L7.8496,28.4003 L10.3496,33.3495 C10.9004,34.4003 12.0508,35.0995 13.25,35.0995 Z M38.6505,41.8495 L38.65035,41.84946 C38.8496,42.24987 38.49997,42.69909 38.0488,42.64831 L31.4978,41.39831 C31.29661,41.34753 31.04661,41.44909 30.947,41.64831 L27.7478,47.4493085 C27.5486,47.7989185 26.99782,47.7989185 26.7986,47.3985285 L20.1991,33.39853 L24.7499,34.89853 C25.0507,34.99814 25.40029,35.04892 25.7499,35.04892 C26.9999,35.04892 28.0995,34.39852 28.6503,33.29892 L31.1503,28.34972 L32.0995,27.9005 L38.6505,41.8495 Z M19.5,8.6505 C23.94945,8.6505 27.551,12.3008 27.551,16.75 C27.551,21.2014 23.94945,24.801 19.5,24.801 C15.05055,24.801 11.449,21.1507 11.449,16.7015 C11.449,12.2501 15.0508,8.6505 19.5,8.6505 Z M26.949,32.449 L26.9487,32.44875 C26.64985,33.05032 25.99945,33.30032 25.3979,33.19485 L19.9489,31.44485 C19.6501,31.34524 19.3493,31.34524 19.0993,31.44485 L13.6503,33.19485 C13.0507,33.39405 12.35148,33.14405 12.0507,32.54445 L9.4511,27.44495 C9.30072,27.19496 9.1015,26.99574 8.8515,26.84535 L3.752,24.24575 C3.20121,23.94695 2.90238,23.29655 3.1016,22.64615 L4.8516,17.19715 C4.95121,16.89835 4.95121,16.59755 4.8516,16.34755 L3.1016,10.89855 C2.8516,10.29895 3.1524,9.59973 3.752,9.29895 L8.8515,6.69935 C9.10149,6.54897 9.30071,6.34975 9.4511,6.09975 L12.0507,1.00025 C12.3495,0.40066 12.9999,0.09988 13.6503,0.30105 L19.0508,2.0999 C19.3496,2.19951 19.6504,2.19951 19.9004,2.0999 L25.3494,0.3499 C25.949,0.1507 26.64822,0.4007 26.949,1.0003 L29.5486,6.0043 C29.69898,6.25429 29.8982,6.45351 30.1482,6.6039 L35.2477,9.2035 C35.79849,9.5023 36.09732,10.1527 35.8981,10.8031 L34.1481,16.2521 C34.04849,16.5509 34.04849,16.8517 34.1481,17.1017 L35.8981,22.5507 C36.0973,23.1503 35.8473,23.84952 35.2477,24.1503 L30.1482,26.7499 C29.89821,26.90028 29.69899,27.0995 29.5486,27.3495 L26.949,32.449 Z M19.5,26.699 C24.9998,26.699 29.449,22.199 29.449,16.75 C29.449,11.2502 24.9998,6.801 19.5,6.801 C14.0002,6.801 9.551,11.2502 9.551,16.75 C9.551,22.2498 14,26.699 19.5,26.699 Z" id="Combined-Shape" fill="#FBE6FF"></path>
                        <path d="M9.45701267,33.8003746 L7.28013287,29.4908491 L1.64347802,41.4490343 L7.30094478,40.3695917 C7.98062315,40.2315355 8.63123963,40.5365016 8.92646394,41.116659 L11.6786851,46.1087498 L16.9033149,35.025363 L14.6449284,35.7676063 C14.1259739,35.9920977 13.7258465,36.0998 13.24985,36.0998 L11.631816,36.0998 L11.7680593,35.8273135 C10.7916021,35.4603357 9.95088787,34.7427398 9.45701267,33.8003746 Z M7.37791486,29.2834043 L7.38502524,29.2683196 L6.95701267,28.8511746 L7.11170598,29.1574178 L7.37791486,29.2834043 Z M18.7987,33.3498 L12.1992,47.349799 C12,47.750189 11.44922,47.800969 11.25,47.400579 L8.0508,41.59958 C7.94922,41.40036 7.75,41.2988 7.5,41.34958 L0.949,42.59958 C0.49979,42.69918 0.15018,42.24997 0.3494,41.84958 L6.9004,27.95108 L7.8496,28.4003 L10.3496,33.3495 C10.900377,34.4002562 12.0507041,35.0994417 13.24985,35.0995 L14.1442772,35.5470136 L14.5412259,34.7531161 L18.7987,33.3498 Z M31.7187713,29.442239 L29.5444017,33.746784 C28.8252215,35.1825329 27.3814837,36.04892 25.7499,36.04892 C25.2927102,36.04892 24.8381772,35.9811673 24.4368546,35.8482681 L22.0956136,35.0765662 L27.3186464,46.1569823 L30.0525728,41.2010964 C30.3626373,40.5809674 31.0865662,40.2631546 31.685229,40.4160319 L37.3844454,41.5061206 L31.7187713,29.442239 Z M31.8881935,29.106838 L32.0428873,28.8005946 L31.6138202,29.2187674 L31.6207061,29.2334296 L31.8881935,29.106838 Z M38.4564016,41.4362077 L38.6505,41.8495 L37.788105,42.2545147 L38.4564016,41.4362077 Z M38.4657826,42.5415876 C38.3519673,42.6226697 38.2065939,42.66607 38.0488,42.64831 L31.4978,41.39831 C31.29661,41.34753 31.04661,41.44909 30.947,41.64831 L27.7478,47.4493085 C27.5486,47.7989185 26.99782,47.7989185 26.7986,47.3985285 L20.1991,33.39853 L24.7499,34.89853 C25.0507,34.99814 25.40029,35.04892 25.7499,35.04892 C26.9999,35.04892 28.0995,34.39852 28.6503,33.29892 L31.1503,28.34972 L32.0995,27.9005 L38.6504564,41.8494071 L38.4657826,42.5415876 Z M19.5,9.6505 C15.6022823,9.6505 12.449,12.803187 12.449,16.7015 C12.449,20.6096132 15.6139725,23.801 19.5,23.801 C23.3978765,23.801 26.551,20.6484041 26.551,16.75 C26.551,12.8418868 23.3860275,9.6505 19.5,9.6505 Z M19.5,8.6505 C23.94945,8.6505 27.551,12.3008 27.551,16.75 C27.551,21.2014 23.94945,24.801 19.5,24.801 C15.05055,24.801 11.449,21.1507 11.449,16.7015 C11.449,12.2501 15.0508,8.6505 19.5,8.6505 Z M28.6916974,26.8340217 C28.9262996,26.444032 29.2427476,26.127584 29.6940327,25.8589836 L34.7993181,23.2564579 C34.9325342,23.1896321 34.999676,23.0182118 34.9459969,22.8564773 L33.2191244,17.471841 C33.0280982,16.9924057 33.0280982,16.4497761 33.1959969,15.9463227 L34.9419486,10.5102272 C34.9953269,10.3359613 34.9232753,10.1651744 34.7935327,10.0944164 L29.6327217,7.46080261 C29.242732,7.22620042 28.926284,6.90975241 28.6612032,6.46530651 L26.0551579,1.44868195 C25.9883321,1.31546578 25.8169118,1.24832401 25.6551773,1.30200307 L20.270541,3.02887558 C19.7911057,3.21990178 19.2484761,3.21990178 18.7347804,3.04865267 L13.3548097,1.25639573 C13.1859499,1.20416706 13.0323543,1.27243039 12.9416164,1.45441733 L10.3080026,6.61522834 C10.0734004,7.00521801 9.75695241,7.32166602 9.30566733,7.5902664 L4.20038195,10.1927921 C4.04918505,10.2686376 3.98603505,10.4212559 4.05370307,10.5927727 L5.78057558,15.977409 C5.97160178,16.4568443 5.97160178,16.9994739 5.80370307,17.5029273 L4.05775141,22.9390228 C4.00437311,23.1132887 4.07642469,23.2840756 4.20616733,23.3548336 L9.36697834,25.9884474 C9.75696801,26.2230496 10.073416,26.5394976 10.3420164,26.9907827 L12.9445421,32.0960681 C13.0113679,32.2292842 13.1827882,32.296426 13.3445227,32.2427469 L18.729159,30.5158744 C19.2085943,30.3248482 19.7512239,30.3248482 20.2546773,30.4927469 L25.6226462,32.216723 C25.8167747,32.2336686 25.9802853,32.150462 26.0531235,32.0038424 L26.6163544,30.870087 L26.6273687,30.8792656 L28.6916974,26.8340217 Z M26.5413482,32.9375721 C26.2163705,33.1785846 25.7964156,33.2647219 25.3979,33.19485 L19.9489,31.44485 C19.6501,31.34524 19.3493,31.34524 19.0993,31.44485 L13.6503,33.19485 C13.0507,33.39405 12.35148,33.14405 12.0507,32.54445 L9.4511,27.44495 C9.30072,27.19496 9.1015,26.99574 8.8515,26.84535 L3.752,24.24575 C3.20121,23.94695 2.90238,23.29655 3.1016,22.64615 L4.8516,17.19715 C4.95121,16.89835 4.95121,16.59755 4.8516,16.34755 L3.1016,10.89855 C2.8516,10.29895 3.1524,9.59973 3.752,9.29895 L8.8515,6.69935 C9.10149,6.54897 9.30071,6.34975 9.4511,6.09975 L12.0507,1.00025 C12.3495,0.40066 12.9999,0.09988 13.6503,0.30105 L19.0508,2.0999 C19.3496,2.19951 19.6504,2.19951 19.9004,2.0999 L25.3494,0.3499 C25.949,0.1507 26.64822,0.4007 26.949,1.0003 L29.5486,6.0043 C29.69898,6.25429 29.8982,6.45351 30.1482,6.6039 L35.2477,9.2035 C35.79849,9.5023 36.09732,10.1527 35.8981,10.8031 L34.1481,16.2521 C34.04849,16.5509 34.04849,16.8517 34.1481,17.1017 L35.8981,22.5507 C36.0973,23.1503 35.8473,23.84952 35.2477,24.1503 L30.1482,26.7499 C29.89821,26.90028 29.69899,27.0995 29.5486,27.3495 L26.9490411,32.4489194 L26.5413482,32.9375721 Z M19.5,25.699 C24.4292359,25.699 28.449,21.6650533 28.449,16.75 C28.449,11.8024847 24.4475153,7.801 19.5,7.801 C14.5524847,7.801 10.551,11.8024847 10.551,16.75 C10.551,21.6975875 14.552357,25.699 19.5,25.699 Z M19.5,26.699 C14,26.699 9.551,22.2498 9.551,16.75 C9.551,11.2502 14.0002,6.801 19.5,6.801 C24.9998,6.801 29.449,11.2502 29.449,16.75 C29.449,22.199 24.9998,26.699 19.5,26.699 Z" id="Combined-Shape-Copy" fill="#D600FB" fill-rule="nonzero"></path>
                    </g>
                </g>
            </g>
        </g>
    </g>
</svg>