<?xml version="1.0" encoding="UTF-8"?>
<svg width="29px" height="34px" viewBox="0 0 29 34" version="1.1" xmlns="http://www.w3.org/2000/svg" xmlns:xlink="http://www.w3.org/1999/xlink">
    <!-- Generator: Sketch 50.1 (55044) - http://www.bohemiancoding.com/sketch -->
    <title>Shape</title>
    <desc>Created with Sketch.</desc>
    <defs></defs>
    <g id="v2" stroke="none" stroke-width="1" fill="none" fill-rule="evenodd">
        <g id="webflow---04-welcome" transform="translate(-100.000000, -489.000000)" fill="#3A2769" fill-rule="nonzero">
            <g id="appstore-button-with-stars" transform="translate(80.000000, 473.000000)">
                <g id="appstore-button">
                    <g id="Group-15">
                        <path d="M48.3264146,42.5412921 C47.8122126,43.7159308 47.2035654,44.7971795 46.4983741,45.7912643 C45.5371313,47.146457 44.7500874,48.0845077 44.143539,48.6054164 C43.203284,49.4604538 42.1958679,49.8983491 41.1170932,49.9232531 C40.342642,49.9232531 39.4086834,49.7053431 38.3215135,49.2632971 C37.2307757,48.8233264 36.2283967,48.6054164 35.3118579,48.6054164 C34.3506151,48.6054164 33.3196926,48.8233264 32.2169917,49.2632971 C31.1126119,49.7053431 30.2229375,49.9357051 29.5427218,49.9585338 C28.5082314,50.0021158 27.477099,49.5517684 26.4478556,48.6054164 C25.7909363,48.0388504 24.9692626,47.0675943 23.9849331,45.6916482 C22.9288252,44.2223122 22.0605585,42.5184634 21.3803428,40.5759513 C20.651855,38.4777892 20.2866667,36.4460378 20.2866667,34.4790368 C20.2866667,32.2258473 20.7790413,30.2825051 21.7652597,28.6539909 C22.5403404,27.3459083 23.5714728,26.3140525 24.8620148,25.5565558 C26.1525567,24.7990591 27.5469885,24.413047 29.0486681,24.3883506 C29.8703419,24.3883506 30.9478573,24.6396735 32.2868812,25.1336028 C33.6221273,25.6291924 34.4794804,25.8805153 34.8553725,25.8805153 C35.1363996,25.8805153 36.0888276,25.5866481 37.7034218,25.0007815 C39.2302868,24.4574592 40.5189399,24.232493 41.574628,24.3211098 C44.4352699,24.5493965 46.5844243,25.6644731 48.0136958,27.6733959 C45.4552787,29.2062371 44.1897122,31.3531696 44.2148977,34.1073446 C44.2379843,36.2526167 45.0250281,38.0378186 46.5718316,39.4552713 C47.2728252,40.113152 48.0556715,40.6216087 48.9266667,40.9827167 C48.7377761,41.5243787 48.5383917,42.0432121 48.3264146,42.5412921 Z M41.7656173,17.0126156 C41.7656173,18.6940715 41.1443774,20.2640405 39.9060951,21.7171889 C38.4117612,23.4446965 36.6042888,24.4429318 34.6442349,24.285414 C34.6192594,24.0836916 34.6047778,23.871385 34.6047778,23.6482867 C34.6047778,22.0340923 35.3154259,20.3065848 36.5774244,18.8941129 C37.2074792,18.178953 38.0087948,17.5843077 38.9805315,17.1099487 C39.9501695,16.6426666 40.8673379,16.3842461 41.729938,16.34 C41.7551234,16.5647794 41.7656173,16.7895795 41.7656173,17.0125948 L41.7656173,17.0126156 Z" id="Shape"></path>
                    </g>
                </g>
            </g>
        </g>
    </g>
</svg>