<?xml version="1.0" encoding="UTF-8" standalone="no"?>
<svg width="72px" height="57px" viewBox="0 0 72 57" version="1.1" xmlns="http://www.w3.org/2000/svg" xmlns:xlink="http://www.w3.org/1999/xlink">
    <!-- Generator: Sketch 40.3 (33839) - http://www.bohemiancoding.com/sketch -->
    <title>Page 1</title>
    <desc>Created with Sketch.</desc>
    <defs></defs>
    <g id="Page-1" stroke="none" stroke-width="1" fill="none" fill-rule="evenodd">
        <g id="Artboard-Copy-2" transform="translate(-122.000000, -148.000000)" fill="#000000">
            <path d="M127.25,148.01225 C124.379,148.01225 122,150.39125 122,153.26225 L122,195.26225 C122,198.13325 124.379,200.51225 127.25,200.51225 L174.57,200.51225 L178.109,204.28525 C178.996,205.23825 180.543,205.23825 181.391,204.28525 L191.82,193.12925 C194.676,190.04725 194.754,185.03925 191.82,181.92625 C190.723,180.76225 189.398,180.02025 188,179.69925 L188,153.26225 C188,150.39125 185.621,148.01225 182.75,148.01225 L127.25,148.01225 Z M127.25,152.51225 L182.75,152.51225 C183.203,152.51225 183.5,152.80925 183.5,153.26225 L183.5,160.01225 L126.5,160.01225 L126.5,153.26225 C126.5,152.80925 126.797,152.51225 127.25,152.51225 L127.25,152.51225 Z M130.25,154.01225 C129.008,154.01225 128,155.02025 128,156.26225 C128,157.50425 129.008,158.51225 130.25,158.51225 C131.492,158.51225 132.5,157.50425 132.5,156.26225 C132.5,155.02025 131.492,154.01225 130.25,154.01225 L130.25,154.01225 Z M136.25,154.01225 C135.008,154.01225 134,155.02025 134,156.26225 C134,157.50425 135.008,158.51225 136.25,158.51225 C137.492,158.51225 138.5,157.50425 138.5,156.26225 C138.5,155.02025 137.492,154.01225 136.25,154.01225 L136.25,154.01225 Z M142.25,154.01225 C141.008,154.01225 140,155.02025 140,156.26225 C140,157.50425 141.008,158.51225 142.25,158.51225 C143.492,158.51225 144.5,157.50425 144.5,156.26225 C144.5,155.02025 143.492,154.01225 142.25,154.01225 L142.25,154.01225 Z M126.5,164.51225 L183.5,164.51225 L183.5,180.12125 C182.578,180.52425 181.703,181.12125 180.969,181.92625 L179.75,183.23825 L178.531,181.92625 C175.32,178.79725 170.644,178.68425 167.68,181.92625 C164.762,185.05525 164.762,190.00025 167.68,193.12925 L170.375,196.01225 L127.25,196.01225 C126.797,196.01225 126.5,195.71525 126.5,195.26225 L126.5,164.51225 Z M186.383,183.96525 C187.133,183.96525 187.902,184.31325 188.539,184.99625 C189.816,186.36725 189.816,188.68825 188.539,190.05925 L179.75,199.45725 L170.961,190.05925 C169.684,188.68825 169.684,186.36725 170.961,184.99625 C171.601,184.31325 172.371,184.03525 173.117,184.03525 C173.863,184.03525 174.605,184.30525 175.25,184.99625 L178.086,188.06725 C178.926,188.97725 180.551,188.97725 181.391,188.06725 L184.25,184.99625 C184.887,184.31325 185.633,183.96525 186.383,183.96525 L186.383,183.96525 Z" id="Page-1"></path>
        </g>
    </g>
</svg>
