<?xml version="1.0" encoding="UTF-8"?>
<svg width="10px" height="8px" viewBox="0 0 10 8" version="1.1" xmlns="http://www.w3.org/2000/svg" xmlns:xlink="http://www.w3.org/1999/xlink">
    <!-- Generator: Sketch 41.2 (35397) - http://www.bohemiancoding.com/sketch -->
    <title>Page 1</title>
    <desc>Created with Sketch.</desc>
    <defs></defs>
    <g id="Page-1" stroke="none" stroke-width="1" fill="none" fill-rule="evenodd">
        <g id="Desktop-HD-Copy-4" transform="translate(-765.000000, -6139.000000)" fill="#263233">
            <path d="M770.591307,6139.78602 C770.591307,6139.92021 770.63574,6140.07737 770.747566,6140.18919 L773.117982,6142.55961 L765.559131,6142.55961 C765.245719,6142.55961 765,6142.80533 765,6143.11874 C765,6143.43215 765.245719,6143.67787 765.559131,6143.67787 L773.119175,6143.67787 L770.748759,6146.02622 C770.636932,6146.13804 770.5925,6146.27194 770.5925,6146.42939 C770.5925,6146.58535 770.636932,6146.72043 770.748759,6146.83226 C770.972411,6147.05591 771.329956,6147.05591 771.531542,6146.83226 L774.841894,6143.52191 C774.863961,6143.49984 774.886326,6143.45422 774.909586,6143.43215 C775.021412,6143.27619 775.021412,6143.0746 774.95372,6142.91715 C774.931653,6142.84976 774.886326,6142.78326 774.841894,6142.73793 L771.531542,6139.38434 C771.307889,6139.16069 770.950046,6139.16069 770.748759,6139.38434 C770.636932,6139.49617 770.591307,6139.63006 770.591307,6139.78602 Z" id="Page-1"></path>
        </g>
    </g>
</svg>